<svg width="191" height="46" viewBox="0 0 191 46" fill="none" xmlns="http://www.w3.org/2000/svg">
<path d="M0 11.7327V35.2095L19.4162 46V39.8869V13.5947L12.7086 19.8088V36.1853L11.1046 35.3104V21.11L6.96562 24.7779V33.0558L5.29432 32.1473V14.7949L20.3248 6.12436V0L0 11.7327Z" fill="white"/>
<path d="M20.325 0V6.12436L35.3442 14.7949V32.1473L33.6841 33.0558V24.7779L29.5451 21.11V35.3104L27.9299 36.1853V19.8088L21.2335 13.5947V39.8869V46L40.6497 35.2095V11.7327L20.325 0Z" fill="white"/>
<path d="M60.688 22.192C59.824 22.192 59.0187 22.0533 58.272 21.776C57.536 21.488 56.896 21.0827 56.352 20.56C55.808 20.0373 55.3813 19.424 55.072 18.72C54.7733 18.016 54.624 17.2427 54.624 16.4C54.624 15.5573 54.7733 14.784 55.072 14.08C55.3813 13.376 55.808 12.7627 56.352 12.24C56.9067 11.7173 57.552 11.3173 58.288 11.04C59.024 10.752 59.8293 10.608 60.704 10.608C61.6747 10.608 62.5493 10.7787 63.328 11.12C64.1173 11.4507 64.7787 11.9413 65.312 12.592L63.648 14.128C63.264 13.6907 62.8373 13.3653 62.368 13.152C61.8987 12.928 61.3867 12.816 60.832 12.816C60.3093 12.816 59.8293 12.9013 59.392 13.072C58.9547 13.2427 58.576 13.488 58.256 13.808C57.936 14.128 57.6853 14.5067 57.504 14.944C57.3333 15.3813 57.248 15.8667 57.248 16.4C57.248 16.9333 57.3333 17.4187 57.504 17.856C57.6853 18.2933 57.936 18.672 58.256 18.992C58.576 19.312 58.9547 19.5573 59.392 19.728C59.8293 19.8987 60.3093 19.984 60.832 19.984C61.3867 19.984 61.8987 19.8773 62.368 19.664C62.8373 19.44 63.264 19.104 63.648 18.656L65.312 20.192C64.7787 20.8427 64.1173 21.3387 63.328 21.68C62.5493 22.0213 61.6693 22.192 60.688 22.192ZM72.268 22.192C71.3827 22.192 70.5613 22.048 69.804 21.76C69.0573 21.472 68.4067 21.0667 67.852 20.544C67.308 20.0213 66.8813 19.408 66.572 18.704C66.2733 18 66.124 17.232 66.124 16.4C66.124 15.568 66.2733 14.8 66.572 14.096C66.8813 13.392 67.3133 12.7787 67.868 12.256C68.4227 11.7333 69.0733 11.328 69.82 11.04C70.5667 10.752 71.3773 10.608 72.252 10.608C73.1373 10.608 73.948 10.752 74.684 11.04C75.4307 11.328 76.076 11.7333 76.62 12.256C77.1747 12.7787 77.6067 13.392 77.916 14.096C78.2253 14.7893 78.38 15.5573 78.38 16.4C78.38 17.232 78.2253 18.0053 77.916 18.72C77.6067 19.424 77.1747 20.0373 76.62 20.56C76.076 21.072 75.4307 21.472 74.684 21.76C73.948 22.048 73.1427 22.192 72.268 22.192ZM72.252 19.984C72.7533 19.984 73.212 19.8987 73.628 19.728C74.0547 19.5573 74.428 19.312 74.748 18.992C75.068 18.672 75.3133 18.2933 75.484 17.856C75.6653 17.4187 75.756 16.9333 75.756 16.4C75.756 15.8667 75.6653 15.3813 75.484 14.944C75.3133 14.5067 75.068 14.128 74.748 13.808C74.4387 13.488 74.0707 13.2427 73.644 13.072C73.2173 12.9013 72.7533 12.816 72.252 12.816C71.7507 12.816 71.2867 12.9013 70.86 13.072C70.444 13.2427 70.076 13.488 69.756 13.808C69.436 14.128 69.1853 14.5067 69.004 14.944C68.8333 15.3813 68.748 15.8667 68.748 16.4C68.748 16.9227 68.8333 17.408 69.004 17.856C69.1853 18.2933 69.4307 18.672 69.74 18.992C70.06 19.312 70.4333 19.5573 70.86 19.728C71.2867 19.8987 71.7507 19.984 72.252 19.984ZM80.328 22V10.8H82.472L89.08 18.864H88.04V10.8H90.6V22H88.472L81.848 13.936H82.888V22H80.328ZM98.6099 22.192C97.7459 22.192 96.9405 22.0533 96.1939 21.776C95.4579 21.488 94.8179 21.0827 94.2739 20.56C93.7299 20.0373 93.3032 19.424 92.9939 18.72C92.6952 18.016 92.5459 17.2427 92.5459 16.4C92.5459 15.5573 92.6952 14.784 92.9939 14.08C93.3032 13.376 93.7299 12.7627 94.2739 12.24C94.8285 11.7173 95.4739 11.3173 96.2099 11.04C96.9459 10.752 97.7512 10.608 98.6259 10.608C99.5965 10.608 100.471 10.7787 101.25 11.12C102.039 11.4507 102.701 11.9413 103.234 12.592L101.57 14.128C101.186 13.6907 100.759 13.3653 100.29 13.152C99.8205 12.928 99.3085 12.816 98.7539 12.816C98.2312 12.816 97.7512 12.9013 97.3139 13.072C96.8765 13.2427 96.4979 13.488 96.1779 13.808C95.8579 14.128 95.6072 14.5067 95.4259 14.944C95.2552 15.3813 95.1699 15.8667 95.1699 16.4C95.1699 16.9333 95.2552 17.4187 95.4259 17.856C95.6072 18.2933 95.8579 18.672 96.1779 18.992C96.4979 19.312 96.8765 19.5573 97.3139 19.728C97.7512 19.8987 98.2312 19.984 98.7539 19.984C99.3085 19.984 99.8205 19.8773 100.29 19.664C100.759 19.44 101.186 19.104 101.57 18.656L103.234 20.192C102.701 20.8427 102.039 21.3387 101.25 21.68C100.471 22.0213 99.5912 22.192 98.6099 22.192ZM107.195 22V12.912H103.611V10.8H113.371V12.912H109.787V22H107.195ZM114.766 22V10.8H119.614C120.616 10.8 121.48 10.9653 122.206 11.296C122.931 11.616 123.491 12.08 123.886 12.688C124.28 13.296 124.478 14.0213 124.478 14.864C124.478 15.696 124.28 16.416 123.886 17.024C123.491 17.6213 122.931 18.08 122.206 18.4C121.48 18.72 120.616 18.88 119.614 18.88H116.206L117.358 17.744V22H114.766ZM121.885 22L119.086 17.936H121.854L124.686 22H121.885ZM117.358 18.032L116.206 16.816H119.47C120.27 16.816 120.867 16.6453 121.262 16.304C121.656 15.952 121.854 15.472 121.854 14.864C121.854 14.2453 121.656 13.7653 121.262 13.424C120.867 13.0827 120.27 12.912 119.47 12.912H116.206L117.358 11.68V18.032ZM131.507 22.192C129.918 22.192 128.675 21.7493 127.779 20.864C126.883 19.9787 126.435 18.7147 126.435 17.072V10.8H129.027V16.976C129.027 18.0427 129.246 18.8107 129.683 19.28C130.12 19.7493 130.734 19.984 131.523 19.984C132.312 19.984 132.926 19.7493 133.363 19.28C133.8 18.8107 134.019 18.0427 134.019 16.976V10.8H136.579V17.072C136.579 18.7147 136.131 19.9787 135.235 20.864C134.339 21.7493 133.096 22.192 131.507 22.192ZM144.501 22.192C143.637 22.192 142.831 22.0533 142.085 21.776C141.349 21.488 140.709 21.0827 140.164 20.56C139.621 20.0373 139.194 19.424 138.885 18.72C138.586 18.016 138.437 17.2427 138.437 16.4C138.437 15.5573 138.586 14.784 138.885 14.08C139.194 13.376 139.621 12.7627 140.164 12.24C140.719 11.7173 141.365 11.3173 142.101 11.04C142.837 10.752 143.642 10.608 144.517 10.608C145.487 10.608 146.362 10.7787 147.141 11.12C147.93 11.4507 148.591 11.9413 149.125 12.592L147.461 14.128C147.077 13.6907 146.65 13.3653 146.181 13.152C145.711 12.928 145.199 12.816 144.645 12.816C144.122 12.816 143.642 12.9013 143.205 13.072C142.767 13.2427 142.389 13.488 142.069 13.808C141.749 14.128 141.498 14.5067 141.317 14.944C141.146 15.3813 141.061 15.8667 141.061 16.4C141.061 16.9333 141.146 17.4187 141.317 17.856C141.498 18.2933 141.749 18.672 142.069 18.992C142.389 19.312 142.767 19.5573 143.205 19.728C143.642 19.8987 144.122 19.984 144.645 19.984C145.199 19.984 145.711 19.8773 146.181 19.664C146.65 19.44 147.077 19.104 147.461 18.656L149.125 20.192C148.591 20.8427 147.93 21.3387 147.141 21.68C146.362 22.0213 145.482 22.192 144.501 22.192ZM153.086 22V12.912H149.502V10.8H159.262V12.912H155.678V22H153.086ZM160.656 22V10.8H163.248V22H160.656ZM171.346 22.192C170.461 22.192 169.639 22.048 168.882 21.76C168.135 21.472 167.485 21.0667 166.93 20.544C166.386 20.0213 165.959 19.408 165.65 18.704C165.351 18 165.202 17.232 165.202 16.4C165.202 15.568 165.351 14.8 165.65 14.096C165.959 13.392 166.391 12.7787 166.946 12.256C167.501 11.7333 168.151 11.328 168.898 11.04C169.645 10.752 170.455 10.608 171.33 10.608C172.215 10.608 173.026 10.752 173.762 11.04C174.509 11.328 175.154 11.7333 175.698 12.256C176.253 12.7787 176.685 13.392 176.994 14.096C177.303 14.7893 177.458 15.5573 177.458 16.4C177.458 17.232 177.303 18.0053 176.994 18.72C176.685 19.424 176.253 20.0373 175.698 20.56C175.154 21.072 174.509 21.472 173.762 21.76C173.026 22.048 172.221 22.192 171.346 22.192ZM171.33 19.984C171.831 19.984 172.29 19.8987 172.706 19.728C173.133 19.5573 173.506 19.312 173.826 18.992C174.146 18.672 174.391 18.2933 174.562 17.856C174.743 17.4187 174.834 16.9333 174.834 16.4C174.834 15.8667 174.743 15.3813 174.562 14.944C174.391 14.5067 174.146 14.128 173.826 13.808C173.517 13.488 173.149 13.2427 172.722 13.072C172.295 12.9013 171.831 12.816 171.33 12.816C170.829 12.816 170.365 12.9013 169.938 13.072C169.522 13.2427 169.154 13.488 168.834 13.808C168.514 14.128 168.263 14.5067 168.082 14.944C167.911 15.3813 167.826 15.8667 167.826 16.4C167.826 16.9227 167.911 17.408 168.082 17.856C168.263 18.2933 168.509 18.672 168.818 18.992C169.138 19.312 169.511 19.5573 169.938 19.728C170.365 19.8987 170.829 19.984 171.33 19.984ZM179.406 22V10.8H181.55L188.158 18.864H187.118V10.8H189.678V22H187.55L180.926 13.936H181.966V22H179.406Z" fill="white"/>
<path d="M58.487 37.055C57.915 37.055 57.4017 36.9303 56.947 36.681C56.4997 36.4243 56.1477 36.076 55.891 35.636C55.6343 35.1887 55.506 34.679 55.506 34.107C55.506 33.5277 55.6343 33.018 55.891 32.578C56.1477 32.138 56.4997 31.7933 56.947 31.544C57.4017 31.2947 57.915 31.17 58.487 31.17C58.9783 31.17 59.422 31.2653 59.818 31.456C60.214 31.6467 60.5257 31.9327 60.753 32.314L60.17 32.71C59.972 32.4167 59.7263 32.2003 59.433 32.061C59.1397 31.9217 58.8207 31.852 58.476 31.852C58.0653 31.852 57.695 31.9473 57.365 32.138C57.035 32.3213 56.7747 32.5817 56.584 32.919C56.3933 33.2563 56.298 33.6523 56.298 34.107C56.298 34.5617 56.3933 34.9577 56.584 35.295C56.7747 35.6323 57.035 35.8963 57.365 36.087C57.695 36.2703 58.0653 36.362 58.476 36.362C58.8207 36.362 59.1397 36.2923 59.433 36.153C59.7263 36.0137 59.972 35.801 60.17 35.515L60.753 35.911C60.5257 36.285 60.214 36.571 59.818 36.769C59.422 36.9597 58.9783 37.055 58.487 37.055ZM66.3046 37.055C65.7472 37.055 65.2449 36.9303 64.7976 36.681C64.3576 36.4243 64.0092 36.076 63.7526 35.636C63.4959 35.1887 63.3676 34.679 63.3676 34.107C63.3676 33.5277 63.4959 33.018 63.7526 32.578C64.0092 32.138 64.3576 31.7933 64.7976 31.544C65.2376 31.2947 65.7399 31.17 66.3046 31.17C66.8766 31.17 67.3826 31.2947 67.8226 31.544C68.2699 31.7933 68.6182 32.138 68.8676 32.578C69.1242 33.018 69.2526 33.5277 69.2526 34.107C69.2526 34.679 69.1242 35.1887 68.8676 35.636C68.6182 36.076 68.2699 36.4243 67.8226 36.681C67.3752 36.9303 66.8692 37.055 66.3046 37.055ZM66.3046 36.362C66.7226 36.362 67.0929 36.2703 67.4156 36.087C67.7382 35.8963 67.9912 35.6323 68.1746 35.295C68.3652 34.9503 68.4606 34.5543 68.4606 34.107C68.4606 33.6523 68.3652 33.2563 68.1746 32.919C67.9912 32.5817 67.7382 32.3213 67.4156 32.138C67.0929 31.9473 66.7262 31.852 66.3156 31.852C65.9049 31.852 65.5382 31.9473 65.2156 32.138C64.8929 32.3213 64.6362 32.5817 64.4456 32.919C64.2549 33.2563 64.1596 33.6523 64.1596 34.107C64.1596 34.5543 64.2549 34.9503 64.4456 35.295C64.6362 35.6323 64.8929 35.8963 65.2156 36.087C65.5382 36.2703 65.9012 36.362 66.3046 36.362ZM75.555 31.17C76.0244 31.17 76.435 31.2617 76.787 31.445C77.1464 31.621 77.425 31.8923 77.623 32.259C77.8284 32.6257 77.931 33.0877 77.931 33.645V37H77.15V33.722C77.15 33.1133 76.996 32.655 76.688 32.347C76.3874 32.0317 75.962 31.874 75.412 31.874C75.0014 31.874 74.642 31.9583 74.334 32.127C74.0334 32.2883 73.7987 32.5267 73.63 32.842C73.4687 33.15 73.388 33.524 73.388 33.964V37H72.607V31.225H73.355V32.809L73.234 32.512C73.4174 32.094 73.7107 31.7677 74.114 31.533C74.5174 31.291 74.9977 31.17 75.555 31.17ZM83.3516 37.055C82.875 37.055 82.424 36.989 81.9986 36.857C81.5733 36.7177 81.2396 36.5453 80.9976 36.34L81.3496 35.724C81.5843 35.9 81.885 36.054 82.2516 36.186C82.6183 36.3107 83.0033 36.373 83.4066 36.373C83.9566 36.373 84.3526 36.2887 84.5946 36.12C84.8366 35.944 84.9576 35.713 84.9576 35.427C84.9576 35.2143 84.888 35.0493 84.7486 34.932C84.6166 34.8073 84.4406 34.7157 84.2206 34.657C84.0006 34.591 83.755 34.536 83.4836 34.492C83.2123 34.448 82.941 34.3967 82.6696 34.338C82.4056 34.2793 82.1636 34.195 81.9436 34.085C81.7236 33.9677 81.544 33.81 81.4046 33.612C81.2726 33.414 81.2066 33.15 81.2066 32.82C81.2066 32.5047 81.2946 32.2223 81.4706 31.973C81.6466 31.7237 81.9033 31.5293 82.2406 31.39C82.5853 31.2433 83.0033 31.17 83.4946 31.17C83.8686 31.17 84.2426 31.2213 84.6166 31.324C84.9906 31.4193 85.2986 31.5477 85.5406 31.709L85.1996 32.336C84.943 32.16 84.668 32.0353 84.3746 31.962C84.0813 31.8813 83.788 31.841 83.4946 31.841C82.974 31.841 82.589 31.9327 82.3396 32.116C82.0976 32.292 81.9766 32.5193 81.9766 32.798C81.9766 33.018 82.0426 33.1903 82.1746 33.315C82.314 33.4397 82.4936 33.5387 82.7136 33.612C82.941 33.678 83.1866 33.733 83.4506 33.777C83.722 33.821 83.9896 33.876 84.2536 33.942C84.525 34.0007 84.7706 34.085 84.9906 34.195C85.218 34.2977 85.3976 34.448 85.5296 34.646C85.669 34.8367 85.7386 35.0897 85.7386 35.405C85.7386 35.7423 85.6433 36.0357 85.4526 36.285C85.2693 36.527 84.998 36.7177 84.6386 36.857C84.2866 36.989 83.8576 37.055 83.3516 37.055ZM90.7577 37.055C90.2151 37.055 89.7971 36.9083 89.5037 36.615C89.2104 36.3217 89.0637 35.9073 89.0637 35.372V29.949H89.8447V35.328C89.8447 35.6653 89.9291 35.9257 90.0977 36.109C90.2737 36.2923 90.5231 36.384 90.8457 36.384C91.1904 36.384 91.4764 36.285 91.7037 36.087L91.9787 36.648C91.8247 36.7873 91.6377 36.89 91.4177 36.956C91.2051 37.022 90.9851 37.055 90.7577 37.055ZM88.0297 31.874V31.225H91.6047V31.874H88.0297ZM95.1605 37V31.225H95.9085V32.798L95.8315 32.523C95.9928 32.083 96.2642 31.7493 96.6455 31.522C97.0268 31.2873 97.4998 31.17 98.0645 31.17V31.929C98.0352 31.929 98.0058 31.929 97.9765 31.929C97.9472 31.9217 97.9178 31.918 97.8885 31.918C97.2798 31.918 96.8032 32.105 96.4585 32.479C96.1138 32.8457 95.9415 33.37 95.9415 34.052V37H95.1605ZM103.723 37.055C103.231 37.055 102.802 36.9633 102.436 36.78C102.069 36.5967 101.783 36.3217 101.578 35.955C101.38 35.5883 101.281 35.13 101.281 34.58V31.225H102.062V34.492C102.062 35.108 102.212 35.5737 102.513 35.889C102.821 36.197 103.25 36.351 103.8 36.351C104.203 36.351 104.551 36.2703 104.845 36.109C105.145 35.9403 105.373 35.6983 105.527 35.383C105.688 35.0677 105.769 34.69 105.769 34.25V31.225H106.55V37H105.802V35.416L105.923 35.702C105.739 36.1273 105.453 36.461 105.065 36.703C104.683 36.9377 104.236 37.055 103.723 37.055ZM112.884 37.055C112.312 37.055 111.799 36.9303 111.344 36.681C110.897 36.4243 110.545 36.076 110.288 35.636C110.031 35.1887 109.903 34.679 109.903 34.107C109.903 33.5277 110.031 33.018 110.288 32.578C110.545 32.138 110.897 31.7933 111.344 31.544C111.799 31.2947 112.312 31.17 112.884 31.17C113.375 31.17 113.819 31.2653 114.215 31.456C114.611 31.6467 114.923 31.9327 115.15 32.314L114.567 32.71C114.369 32.4167 114.123 32.2003 113.83 32.061C113.537 31.9217 113.218 31.852 112.873 31.852C112.462 31.852 112.092 31.9473 111.762 32.138C111.432 32.3213 111.172 32.5817 110.981 32.919C110.79 33.2563 110.695 33.6523 110.695 34.107C110.695 34.5617 110.79 34.9577 110.981 35.295C111.172 35.6323 111.432 35.8963 111.762 36.087C112.092 36.2703 112.462 36.362 112.873 36.362C113.218 36.362 113.537 36.2923 113.83 36.153C114.123 36.0137 114.369 35.801 114.567 35.515L115.15 35.911C114.923 36.285 114.611 36.571 114.215 36.769C113.819 36.9597 113.375 37.055 112.884 37.055ZM120.335 37.055C119.792 37.055 119.374 36.9083 119.081 36.615C118.788 36.3217 118.641 35.9073 118.641 35.372V29.949H119.422V35.328C119.422 35.6653 119.506 35.9257 119.675 36.109C119.851 36.2923 120.1 36.384 120.423 36.384C120.768 36.384 121.054 36.285 121.281 36.087L121.556 36.648C121.402 36.7873 121.215 36.89 120.995 36.956C120.782 37.022 120.562 37.055 120.335 37.055ZM117.607 31.874V31.225H121.182V31.874H117.607ZM124.738 37V31.225H125.519V37H124.738ZM125.134 29.949C124.972 29.949 124.837 29.894 124.727 29.784C124.617 29.674 124.562 29.542 124.562 29.388C124.562 29.234 124.617 29.1057 124.727 29.003C124.837 28.893 124.972 28.838 125.134 28.838C125.295 28.838 125.431 28.8893 125.541 28.992C125.651 29.0947 125.706 29.223 125.706 29.377C125.706 29.5383 125.651 29.674 125.541 29.784C125.438 29.894 125.302 29.949 125.134 29.949ZM131.806 37.055C131.248 37.055 130.746 36.9303 130.299 36.681C129.859 36.4243 129.51 36.076 129.254 35.636C128.997 35.1887 128.869 34.679 128.869 34.107C128.869 33.5277 128.997 33.018 129.254 32.578C129.51 32.138 129.859 31.7933 130.299 31.544C130.739 31.2947 131.241 31.17 131.806 31.17C132.378 31.17 132.884 31.2947 133.324 31.544C133.771 31.7933 134.119 32.138 134.369 32.578C134.625 33.018 134.754 33.5277 134.754 34.107C134.754 34.679 134.625 35.1887 134.369 35.636C134.119 36.076 133.771 36.4243 133.324 36.681C132.876 36.9303 132.37 37.055 131.806 37.055ZM131.806 36.362C132.224 36.362 132.594 36.2703 132.917 36.087C133.239 35.8963 133.492 35.6323 133.676 35.295C133.866 34.9503 133.962 34.5543 133.962 34.107C133.962 33.6523 133.866 33.2563 133.676 32.919C133.492 32.5817 133.239 32.3213 132.917 32.138C132.594 31.9473 132.227 31.852 131.817 31.852C131.406 31.852 131.039 31.9473 130.717 32.138C130.394 32.3213 130.137 32.5817 129.947 32.919C129.756 33.2563 129.661 33.6523 129.661 34.107C129.661 34.5543 129.756 34.9503 129.947 35.295C130.137 35.6323 130.394 35.8963 130.717 36.087C131.039 36.2703 131.402 36.362 131.806 36.362ZM141.056 31.17C141.526 31.17 141.936 31.2617 142.288 31.445C142.648 31.621 142.926 31.8923 143.124 32.259C143.33 32.6257 143.432 33.0877 143.432 33.645V37H142.651V33.722C142.651 33.1133 142.497 32.655 142.189 32.347C141.889 32.0317 141.463 31.874 140.913 31.874C140.503 31.874 140.143 31.9583 139.835 32.127C139.535 32.2883 139.3 32.5267 139.131 32.842C138.97 33.15 138.889 33.524 138.889 33.964V37H138.108V31.225H138.856V32.809L138.735 32.512C138.919 32.094 139.212 31.7677 139.615 31.533C140.019 31.291 140.499 31.17 141.056 31.17ZM153.118 37L150.94 31.225H151.688L153.668 36.582H153.327L155.362 31.225H156.033L158.046 36.582H157.705L159.718 31.225H160.433L158.244 37H157.507L155.571 31.962H155.802L153.855 37H153.118ZM165.562 37.055C165.004 37.055 164.502 36.9303 164.055 36.681C163.615 36.4243 163.266 36.076 163.01 35.636C162.753 35.1887 162.625 34.679 162.625 34.107C162.625 33.5277 162.753 33.018 163.01 32.578C163.266 32.138 163.615 31.7933 164.055 31.544C164.495 31.2947 164.997 31.17 165.562 31.17C166.134 31.17 166.64 31.2947 167.08 31.544C167.527 31.7933 167.875 32.138 168.125 32.578C168.381 33.018 168.51 33.5277 168.51 34.107C168.51 34.679 168.381 35.1887 168.125 35.636C167.875 36.076 167.527 36.4243 167.08 36.681C166.632 36.9303 166.126 37.055 165.562 37.055ZM165.562 36.362C165.98 36.362 166.35 36.2703 166.673 36.087C166.995 35.8963 167.248 35.6323 167.432 35.295C167.622 34.9503 167.718 34.5543 167.718 34.107C167.718 33.6523 167.622 33.2563 167.432 32.919C167.248 32.5817 166.995 32.3213 166.673 32.138C166.35 31.9473 165.983 31.852 165.573 31.852C165.162 31.852 164.795 31.9473 164.473 32.138C164.15 32.3213 163.893 32.5817 163.703 32.919C163.512 33.2563 163.417 33.6523 163.417 34.107C163.417 34.5543 163.512 34.9503 163.703 35.295C163.893 35.6323 164.15 35.8963 164.473 36.087C164.795 36.2703 165.158 36.362 165.562 36.362ZM171.864 37V31.225H172.612V32.798L172.535 32.523C172.696 32.083 172.968 31.7493 173.349 31.522C173.73 31.2873 174.203 31.17 174.768 31.17V31.929C174.739 31.929 174.709 31.929 174.68 31.929C174.651 31.9217 174.621 31.918 174.592 31.918C173.983 31.918 173.507 32.105 173.162 32.479C172.817 32.8457 172.645 33.37 172.645 34.052V37H171.864ZM178.569 35.504L178.591 34.503L182.188 31.225H183.145L180.604 33.656L180.164 34.03L178.569 35.504ZM177.953 37V28.838H178.734V37H177.953ZM182.43 37L180.021 33.997L180.527 33.392L183.387 37H182.43ZM187.699 37.055C187.222 37.055 186.771 36.989 186.346 36.857C185.92 36.7177 185.587 36.5453 185.345 36.34L185.697 35.724C185.931 35.9 186.232 36.054 186.599 36.186C186.965 36.3107 187.35 36.373 187.754 36.373C188.304 36.373 188.7 36.2887 188.942 36.12C189.184 35.944 189.305 35.713 189.305 35.427C189.305 35.2143 189.235 35.0493 189.096 34.932C188.964 34.8073 188.788 34.7157 188.568 34.657C188.348 34.591 188.102 34.536 187.831 34.492C187.559 34.448 187.288 34.3967 187.017 34.338C186.753 34.2793 186.511 34.195 186.291 34.085C186.071 33.9677 185.891 33.81 185.752 33.612C185.62 33.414 185.554 33.15 185.554 32.82C185.554 32.5047 185.642 32.2223 185.818 31.973C185.994 31.7237 186.25 31.5293 186.588 31.39C186.932 31.2433 187.35 31.17 187.842 31.17C188.216 31.17 188.59 31.2213 188.964 31.324C189.338 31.4193 189.646 31.5477 189.888 31.709L189.547 32.336C189.29 32.16 189.015 32.0353 188.722 31.962C188.428 31.8813 188.135 31.841 187.842 31.841C187.321 31.841 186.936 31.9327 186.687 32.116C186.445 32.292 186.324 32.5193 186.324 32.798C186.324 33.018 186.39 33.1903 186.522 33.315C186.661 33.4397 186.841 33.5387 187.061 33.612C187.288 33.678 187.534 33.733 187.798 33.777C188.069 33.821 188.337 33.876 188.601 33.942C188.872 34.0007 189.118 34.085 189.338 34.195C189.565 34.2977 189.745 34.448 189.877 34.646C190.016 34.8367 190.086 35.0897 190.086 35.405C190.086 35.7423 189.99 36.0357 189.8 36.285C189.616 36.527 189.345 36.7177 188.986 36.857C188.634 36.989 188.205 37.055 187.699 37.055Z" fill="#A3A1A1"/>
</svg>
