<svg width="192" height="46" viewBox="0 0 192 46" fill="none" xmlns="http://www.w3.org/2000/svg">
<path d="M0 11.7327V35.2095L19.4162 46V39.8869V13.5947L12.7086 19.8088V36.1853L11.1046 35.3104V21.11L6.96562 24.7779V33.0558L5.29432 32.1473V14.7949L20.3248 6.12436V0L0 11.7327Z" fill="#FD6B3E"/>
<path d="M20.325 0V6.12436L35.3442 14.7949V32.1473L33.6841 33.0558V24.7779L29.5451 21.11V35.3104L27.9299 36.1853V19.8088L21.2335 13.5947V39.8869V46L40.6497 35.2095V11.7327L20.325 0Z" fill="#FD6B3E"/>
<path d="M60.688 22.192C59.824 22.192 59.0187 22.0533 58.272 21.776C57.536 21.488 56.896 21.0827 56.352 20.56C55.808 20.0373 55.3813 19.424 55.072 18.72C54.7733 18.016 54.624 17.2427 54.624 16.4C54.624 15.5573 54.7733 14.784 55.072 14.08C55.3813 13.376 55.808 12.7627 56.352 12.24C56.9067 11.7173 57.552 11.3173 58.288 11.04C59.024 10.752 59.8293 10.608 60.704 10.608C61.6747 10.608 62.5493 10.7787 63.328 11.12C64.1173 11.4507 64.7787 11.9413 65.312 12.592L63.648 14.128C63.264 13.6907 62.8373 13.3653 62.368 13.152C61.8987 12.928 61.3867 12.816 60.832 12.816C60.3093 12.816 59.8293 12.9013 59.392 13.072C58.9547 13.2427 58.576 13.488 58.256 13.808C57.936 14.128 57.6853 14.5067 57.504 14.944C57.3333 15.3813 57.248 15.8667 57.248 16.4C57.248 16.9333 57.3333 17.4187 57.504 17.856C57.6853 18.2933 57.936 18.672 58.256 18.992C58.576 19.312 58.9547 19.5573 59.392 19.728C59.8293 19.8987 60.3093 19.984 60.832 19.984C61.3867 19.984 61.8987 19.8773 62.368 19.664C62.8373 19.44 63.264 19.104 63.648 18.656L65.312 20.192C64.7787 20.8427 64.1173 21.3387 63.328 21.68C62.5493 22.0213 61.6693 22.192 60.688 22.192ZM72.268 22.192C71.3827 22.192 70.5613 22.048 69.804 21.76C69.0573 21.472 68.4067 21.0667 67.852 20.544C67.308 20.0213 66.8813 19.408 66.572 18.704C66.2733 18 66.124 17.232 66.124 16.4C66.124 15.568 66.2733 14.8 66.572 14.096C66.8813 13.392 67.3133 12.7787 67.868 12.256C68.4227 11.7333 69.0733 11.328 69.82 11.04C70.5667 10.752 71.3773 10.608 72.252 10.608C73.1373 10.608 73.948 10.752 74.684 11.04C75.4307 11.328 76.076 11.7333 76.62 12.256C77.1747 12.7787 77.6067 13.392 77.916 14.096C78.2253 14.7893 78.38 15.5573 78.38 16.4C78.38 17.232 78.2253 18.0053 77.916 18.72C77.6067 19.424 77.1747 20.0373 76.62 20.56C76.076 21.072 75.4307 21.472 74.684 21.76C73.948 22.048 73.1427 22.192 72.268 22.192ZM72.252 19.984C72.7533 19.984 73.212 19.8987 73.628 19.728C74.0547 19.5573 74.428 19.312 74.748 18.992C75.068 18.672 75.3133 18.2933 75.484 17.856C75.6653 17.4187 75.756 16.9333 75.756 16.4C75.756 15.8667 75.6653 15.3813 75.484 14.944C75.3133 14.5067 75.068 14.128 74.748 13.808C74.4387 13.488 74.0707 13.2427 73.644 13.072C73.2173 12.9013 72.7533 12.816 72.252 12.816C71.7507 12.816 71.2867 12.9013 70.86 13.072C70.444 13.2427 70.076 13.488 69.756 13.808C69.436 14.128 69.1853 14.5067 69.004 14.944C68.8333 15.3813 68.748 15.8667 68.748 16.4C68.748 16.9227 68.8333 17.408 69.004 17.856C69.1853 18.2933 69.4307 18.672 69.74 18.992C70.06 19.312 70.4333 19.5573 70.86 19.728C71.2867 19.8987 71.7507 19.984 72.252 19.984ZM80.328 22V10.8H82.472L89.08 18.864H88.04V10.8H90.6V22H88.472L81.848 13.936H82.888V22H80.328ZM98.6099 22.192C97.7459 22.192 96.9405 22.0533 96.1939 21.776C95.4579 21.488 94.8179 21.0827 94.2739 20.56C93.7299 20.0373 93.3032 19.424 92.9939 18.72C92.6952 18.016 92.5459 17.2427 92.5459 16.4C92.5459 15.5573 92.6952 14.784 92.9939 14.08C93.3032 13.376 93.7299 12.7627 94.2739 12.24C94.8285 11.7173 95.4739 11.3173 96.2099 11.04C96.9459 10.752 97.7512 10.608 98.6259 10.608C99.5965 10.608 100.471 10.7787 101.25 11.12C102.039 11.4507 102.701 11.9413 103.234 12.592L101.57 14.128C101.186 13.6907 100.759 13.3653 100.29 13.152C99.8205 12.928 99.3085 12.816 98.7539 12.816C98.2312 12.816 97.7512 12.9013 97.3139 13.072C96.8765 13.2427 96.4979 13.488 96.1779 13.808C95.8579 14.128 95.6072 14.5067 95.4259 14.944C95.2552 15.3813 95.1699 15.8667 95.1699 16.4C95.1699 16.9333 95.2552 17.4187 95.4259 17.856C95.6072 18.2933 95.8579 18.672 96.1779 18.992C96.4979 19.312 96.8765 19.5573 97.3139 19.728C97.7512 19.8987 98.2312 19.984 98.7539 19.984C99.3085 19.984 99.8205 19.8773 100.29 19.664C100.759 19.44 101.186 19.104 101.57 18.656L103.234 20.192C102.701 20.8427 102.039 21.3387 101.25 21.68C100.471 22.0213 99.5912 22.192 98.6099 22.192ZM107.195 22V12.912H103.611V10.8H113.371V12.912H109.787V22H107.195ZM114.766 22V10.8H119.614C120.616 10.8 121.48 10.9653 122.206 11.296C122.931 11.616 123.491 12.08 123.886 12.688C124.28 13.296 124.478 14.0213 124.478 14.864C124.478 15.696 124.28 16.416 123.886 17.024C123.491 17.6213 122.931 18.08 122.206 18.4C121.48 18.72 120.616 18.88 119.614 18.88H116.206L117.358 17.744V22H114.766ZM121.885 22L119.086 17.936H121.854L124.686 22H121.885ZM117.358 18.032L116.206 16.816H119.47C120.27 16.816 120.867 16.6453 121.262 16.304C121.656 15.952 121.854 15.472 121.854 14.864C121.854 14.2453 121.656 13.7653 121.262 13.424C120.867 13.0827 120.27 12.912 119.47 12.912H116.206L117.358 11.68V18.032ZM131.507 22.192C129.918 22.192 128.675 21.7493 127.779 20.864C126.883 19.9787 126.435 18.7147 126.435 17.072V10.8H129.027V16.976C129.027 18.0427 129.246 18.8107 129.683 19.28C130.12 19.7493 130.734 19.984 131.523 19.984C132.312 19.984 132.926 19.7493 133.363 19.28C133.8 18.8107 134.019 18.0427 134.019 16.976V10.8H136.579V17.072C136.579 18.7147 136.131 19.9787 135.235 20.864C134.339 21.7493 133.096 22.192 131.507 22.192ZM144.501 22.192C143.637 22.192 142.831 22.0533 142.085 21.776C141.349 21.488 140.709 21.0827 140.164 20.56C139.621 20.0373 139.194 19.424 138.885 18.72C138.586 18.016 138.437 17.2427 138.437 16.4C138.437 15.5573 138.586 14.784 138.885 14.08C139.194 13.376 139.621 12.7627 140.164 12.24C140.719 11.7173 141.365 11.3173 142.101 11.04C142.837 10.752 143.642 10.608 144.517 10.608C145.487 10.608 146.362 10.7787 147.141 11.12C147.93 11.4507 148.591 11.9413 149.125 12.592L147.461 14.128C147.077 13.6907 146.65 13.3653 146.181 13.152C145.711 12.928 145.199 12.816 144.645 12.816C144.122 12.816 143.642 12.9013 143.205 13.072C142.767 13.2427 142.389 13.488 142.069 13.808C141.749 14.128 141.498 14.5067 141.317 14.944C141.146 15.3813 141.061 15.8667 141.061 16.4C141.061 16.9333 141.146 17.4187 141.317 17.856C141.498 18.2933 141.749 18.672 142.069 18.992C142.389 19.312 142.767 19.5573 143.205 19.728C143.642 19.8987 144.122 19.984 144.645 19.984C145.199 19.984 145.711 19.8773 146.181 19.664C146.65 19.44 147.077 19.104 147.461 18.656L149.125 20.192C148.591 20.8427 147.93 21.3387 147.141 21.68C146.362 22.0213 145.482 22.192 144.501 22.192ZM153.086 22V12.912H149.502V10.8H159.262V12.912H155.678V22H153.086ZM160.656 22V10.8H163.248V22H160.656ZM171.346 22.192C170.461 22.192 169.639 22.048 168.882 21.76C168.135 21.472 167.485 21.0667 166.93 20.544C166.386 20.0213 165.959 19.408 165.65 18.704C165.351 18 165.202 17.232 165.202 16.4C165.202 15.568 165.351 14.8 165.65 14.096C165.959 13.392 166.391 12.7787 166.946 12.256C167.501 11.7333 168.151 11.328 168.898 11.04C169.645 10.752 170.455 10.608 171.33 10.608C172.215 10.608 173.026 10.752 173.762 11.04C174.509 11.328 175.154 11.7333 175.698 12.256C176.253 12.7787 176.685 13.392 176.994 14.096C177.303 14.7893 177.458 15.5573 177.458 16.4C177.458 17.232 177.303 18.0053 176.994 18.72C176.685 19.424 176.253 20.0373 175.698 20.56C175.154 21.072 174.509 21.472 173.762 21.76C173.026 22.048 172.221 22.192 171.346 22.192ZM171.33 19.984C171.831 19.984 172.29 19.8987 172.706 19.728C173.133 19.5573 173.506 19.312 173.826 18.992C174.146 18.672 174.391 18.2933 174.562 17.856C174.743 17.4187 174.834 16.9333 174.834 16.4C174.834 15.8667 174.743 15.3813 174.562 14.944C174.391 14.5067 174.146 14.128 173.826 13.808C173.517 13.488 173.149 13.2427 172.722 13.072C172.295 12.9013 171.831 12.816 171.33 12.816C170.829 12.816 170.365 12.9013 169.938 13.072C169.522 13.2427 169.154 13.488 168.834 13.808C168.514 14.128 168.263 14.5067 168.082 14.944C167.911 15.3813 167.826 15.8667 167.826 16.4C167.826 16.9227 167.911 17.408 168.082 17.856C168.263 18.2933 168.509 18.672 168.818 18.992C169.138 19.312 169.511 19.5573 169.938 19.728C170.365 19.8987 170.829 19.984 171.33 19.984ZM179.406 22V10.8H181.55L188.158 18.864H187.118V10.8H189.678V22H187.55L180.926 13.936H181.966V22H179.406Z" fill="black"/>
<path d="M58.17 37.05C57.65 37.05 57.1833 36.9367 56.77 36.71C56.3633 36.4767 56.0433 36.16 55.81 35.76C55.5767 35.3533 55.46 34.89 55.46 34.37C55.46 33.8433 55.5767 33.38 55.81 32.98C56.0433 32.58 56.3633 32.2667 56.77 32.04C57.1833 31.8133 57.65 31.7 58.17 31.7C58.6167 31.7 59.02 31.7867 59.38 31.96C59.74 32.1333 60.0233 32.3933 60.23 32.74L59.7 33.1C59.52 32.8333 59.2967 32.6367 59.03 32.51C58.7633 32.3833 58.4733 32.32 58.16 32.32C57.7867 32.32 57.45 32.4067 57.15 32.58C56.85 32.7467 56.6133 32.9833 56.44 33.29C56.2667 33.5967 56.18 33.9567 56.18 34.37C56.18 34.7833 56.2667 35.1433 56.44 35.45C56.6133 35.7567 56.85 35.9967 57.15 36.17C57.45 36.3367 57.7867 36.42 58.16 36.42C58.4733 36.42 58.7633 36.3567 59.03 36.23C59.2967 36.1033 59.52 35.91 59.7 35.65L60.23 36.01C60.0233 36.35 59.74 36.61 59.38 36.79C59.02 36.9633 58.6167 37.05 58.17 37.05ZM66.0769 37.05C65.5702 37.05 65.1135 36.9367 64.7069 36.71C64.3069 36.4767 63.9902 36.16 63.7569 35.76C63.5235 35.3533 63.4069 34.89 63.4069 34.37C63.4069 33.8433 63.5235 33.38 63.7569 32.98C63.9902 32.58 64.3069 32.2667 64.7069 32.04C65.1069 31.8133 65.5635 31.7 66.0769 31.7C66.5969 31.7 67.0569 31.8133 67.4569 32.04C67.8635 32.2667 68.1802 32.58 68.4069 32.98C68.6402 33.38 68.7569 33.8433 68.7569 34.37C68.7569 34.89 68.6402 35.3533 68.4069 35.76C68.1802 36.16 67.8635 36.4767 67.4569 36.71C67.0502 36.9367 66.5902 37.05 66.0769 37.05ZM66.0769 36.42C66.4569 36.42 66.7935 36.3367 67.0869 36.17C67.3802 35.9967 67.6102 35.7567 67.7769 35.45C67.9502 35.1367 68.0369 34.7767 68.0369 34.37C68.0369 33.9567 67.9502 33.5967 67.7769 33.29C67.6102 32.9833 67.3802 32.7467 67.0869 32.58C66.7935 32.4067 66.4602 32.32 66.0869 32.32C65.7135 32.32 65.3802 32.4067 65.0869 32.58C64.7935 32.7467 64.5602 32.9833 64.3869 33.29C64.2135 33.5967 64.1269 33.9567 64.1269 34.37C64.1269 34.7767 64.2135 35.1367 64.3869 35.45C64.5602 35.7567 64.7935 35.9967 65.0869 36.17C65.3802 36.3367 65.7102 36.42 66.0769 36.42ZM75.2864 31.7C75.7131 31.7 76.0864 31.7833 76.4064 31.95C76.7331 32.11 76.9864 32.3567 77.1664 32.69C77.3531 33.0233 77.4464 33.4433 77.4464 33.95V37H76.7364V34.02C76.7364 33.4667 76.5964 33.05 76.3164 32.77C76.0431 32.4833 75.6564 32.34 75.1564 32.34C74.7831 32.34 74.4564 32.4167 74.1764 32.57C73.9031 32.7167 73.6897 32.9333 73.5364 33.22C73.3897 33.5 73.3164 33.84 73.3164 34.24V37H72.6064V31.75H73.2864V33.19L73.1764 32.92C73.3431 32.54 73.6097 32.2433 73.9764 32.03C74.3431 31.81 74.7797 31.7 75.2864 31.7ZM83.1742 37.05C82.7409 37.05 82.3309 36.99 81.9442 36.87C81.5576 36.7433 81.2542 36.5867 81.0342 36.4L81.3542 35.84C81.5676 36 81.8409 36.14 82.1742 36.26C82.5076 36.3733 82.8576 36.43 83.2242 36.43C83.7242 36.43 84.0842 36.3533 84.3042 36.2C84.5242 36.04 84.6342 35.83 84.6342 35.57C84.6342 35.3767 84.5709 35.2267 84.4442 35.12C84.3242 35.0067 84.1642 34.9233 83.9642 34.87C83.7642 34.81 83.5409 34.76 83.2942 34.72C83.0476 34.68 82.8009 34.6333 82.5542 34.58C82.3142 34.5267 82.0942 34.45 81.8942 34.35C81.6942 34.2433 81.5309 34.1 81.4042 33.92C81.2842 33.74 81.2242 33.5 81.2242 33.2C81.2242 32.9133 81.3042 32.6567 81.4642 32.43C81.6242 32.2033 81.8576 32.0267 82.1642 31.9C82.4776 31.7667 82.8576 31.7 83.3042 31.7C83.6442 31.7 83.9842 31.7467 84.3242 31.84C84.6642 31.9267 84.9442 32.0433 85.1642 32.19L84.8542 32.76C84.6209 32.6 84.3709 32.4867 84.1042 32.42C83.8376 32.3467 83.5709 32.31 83.3042 32.31C82.8309 32.31 82.4809 32.3933 82.2542 32.56C82.0342 32.72 81.9242 32.9267 81.9242 33.18C81.9242 33.38 81.9842 33.5367 82.1042 33.65C82.2309 33.7633 82.3942 33.8533 82.5942 33.92C82.8009 33.98 83.0242 34.03 83.2642 34.07C83.5109 34.11 83.7542 34.16 83.9942 34.22C84.2409 34.2733 84.4642 34.35 84.6642 34.45C84.8709 34.5433 85.0342 34.68 85.1542 34.86C85.2809 35.0333 85.3442 35.2633 85.3442 35.55C85.3442 35.8567 85.2576 36.1233 85.0842 36.35C84.9176 36.57 84.6709 36.7433 84.3442 36.87C84.0242 36.99 83.6342 37.05 83.1742 37.05ZM90.707 37.05C90.2137 37.05 89.8337 36.9167 89.567 36.65C89.3004 36.3833 89.167 36.0067 89.167 35.52V30.59H89.877V35.48C89.877 35.7867 89.9537 36.0233 90.107 36.19C90.267 36.3567 90.4937 36.44 90.787 36.44C91.1004 36.44 91.3604 36.35 91.567 36.17L91.817 36.68C91.677 36.8067 91.507 36.9 91.307 36.96C91.1137 37.02 90.9137 37.05 90.707 37.05ZM88.227 32.34V31.75H91.477V32.34H88.227ZM95.5095 37V31.75H96.1895V33.18L96.1195 32.93C96.2662 32.53 96.5129 32.2267 96.8595 32.02C97.2062 31.8067 97.6362 31.7 98.1495 31.7V32.39C98.1229 32.39 98.0962 32.39 98.0695 32.39C98.0429 32.3833 98.0162 32.38 97.9895 32.38C97.4362 32.38 97.0029 32.55 96.6895 32.89C96.3762 33.2233 96.2195 33.7 96.2195 34.32V37H95.5095ZM104.093 37.05C103.647 37.05 103.257 36.9667 102.923 36.8C102.59 36.6333 102.33 36.3833 102.143 36.05C101.963 35.7167 101.873 35.3 101.873 34.8V31.75H102.583V34.72C102.583 35.28 102.72 35.7033 102.993 35.99C103.273 36.27 103.663 36.41 104.163 36.41C104.53 36.41 104.847 36.3367 105.113 36.19C105.387 36.0367 105.593 35.8167 105.733 35.53C105.88 35.2433 105.953 34.9 105.953 34.5V31.75H106.663V37H105.983V35.56L106.093 35.82C105.927 36.2067 105.667 36.51 105.313 36.73C104.967 36.9433 104.56 37.05 104.093 37.05ZM113.222 37.05C112.702 37.05 112.235 36.9367 111.822 36.71C111.415 36.4767 111.095 36.16 110.862 35.76C110.629 35.3533 110.512 34.89 110.512 34.37C110.512 33.8433 110.629 33.38 110.862 32.98C111.095 32.58 111.415 32.2667 111.822 32.04C112.235 31.8133 112.702 31.7 113.222 31.7C113.669 31.7 114.072 31.7867 114.432 31.96C114.792 32.1333 115.075 32.3933 115.282 32.74L114.752 33.1C114.572 32.8333 114.349 32.6367 114.082 32.51C113.815 32.3833 113.525 32.32 113.212 32.32C112.839 32.32 112.502 32.4067 112.202 32.58C111.902 32.7467 111.665 32.9833 111.492 33.29C111.319 33.5967 111.232 33.9567 111.232 34.37C111.232 34.7833 111.319 35.1433 111.492 35.45C111.665 35.7567 111.902 35.9967 112.202 36.17C112.502 36.3367 112.839 36.42 113.212 36.42C113.525 36.42 113.815 36.3567 114.082 36.23C114.349 36.1033 114.572 35.91 114.752 35.65L115.282 36.01C115.075 36.35 114.792 36.61 114.432 36.79C114.072 36.9633 113.669 37.05 113.222 37.05ZM120.795 37.05C120.302 37.05 119.922 36.9167 119.655 36.65C119.389 36.3833 119.255 36.0067 119.255 35.52V30.59H119.965V35.48C119.965 35.7867 120.042 36.0233 120.195 36.19C120.355 36.3567 120.582 36.44 120.875 36.44C121.189 36.44 121.449 36.35 121.655 36.17L121.905 36.68C121.765 36.8067 121.595 36.9 121.395 36.96C121.202 37.02 121.002 37.05 120.795 37.05ZM118.315 32.34V31.75H121.565V32.34H118.315ZM125.598 37V31.75H126.308V37H125.598ZM125.958 30.59C125.811 30.59 125.688 30.54 125.588 30.44C125.488 30.34 125.438 30.22 125.438 30.08C125.438 29.94 125.488 29.8233 125.588 29.73C125.688 29.63 125.811 29.58 125.958 29.58C126.104 29.58 126.228 29.6267 126.328 29.72C126.428 29.8133 126.478 29.93 126.478 30.07C126.478 30.2167 126.428 30.34 126.328 30.44C126.234 30.54 126.111 30.59 125.958 30.59ZM132.823 37.05C132.317 37.05 131.86 36.9367 131.453 36.71C131.053 36.4767 130.737 36.16 130.503 35.76C130.27 35.3533 130.153 34.89 130.153 34.37C130.153 33.8433 130.27 33.38 130.503 32.98C130.737 32.58 131.053 32.2667 131.453 32.04C131.853 31.8133 132.31 31.7 132.823 31.7C133.343 31.7 133.803 31.8133 134.203 32.04C134.61 32.2667 134.927 32.58 135.153 32.98C135.387 33.38 135.503 33.8433 135.503 34.37C135.503 34.89 135.387 35.3533 135.153 35.76C134.927 36.16 134.61 36.4767 134.203 36.71C133.797 36.9367 133.337 37.05 132.823 37.05ZM132.823 36.42C133.203 36.42 133.54 36.3367 133.833 36.17C134.127 35.9967 134.357 35.7567 134.523 35.45C134.697 35.1367 134.783 34.7767 134.783 34.37C134.783 33.9567 134.697 33.5967 134.523 33.29C134.357 32.9833 134.127 32.7467 133.833 32.58C133.54 32.4067 133.207 32.32 132.833 32.32C132.46 32.32 132.127 32.4067 131.833 32.58C131.54 32.7467 131.307 32.9833 131.133 33.29C130.96 33.5967 130.873 33.9567 130.873 34.37C130.873 34.7767 130.96 35.1367 131.133 35.45C131.307 35.7567 131.54 35.9967 131.833 36.17C132.127 36.3367 132.457 36.42 132.823 36.42ZM142.033 31.7C142.46 31.7 142.833 31.7833 143.153 31.95C143.48 32.11 143.733 32.3567 143.913 32.69C144.1 33.0233 144.193 33.4433 144.193 33.95V37H143.483V34.02C143.483 33.4667 143.343 33.05 143.063 32.77C142.79 32.4833 142.403 32.34 141.903 32.34C141.53 32.34 141.203 32.4167 140.923 32.57C140.65 32.7167 140.436 32.9333 140.283 33.22C140.136 33.5 140.063 33.84 140.063 34.24V37H139.353V31.75H140.033V33.19L139.923 32.92C140.09 32.54 140.356 32.2433 140.723 32.03C141.09 31.81 141.526 31.7 142.033 31.7ZM154.598 37L152.618 31.75H153.298L155.098 36.62H154.788L156.638 31.75H157.248L159.078 36.62H158.768L160.598 31.75H161.248L159.258 37H158.588L156.828 32.42H157.038L155.268 37H154.598ZM166.71 37.05C166.204 37.05 165.747 36.9367 165.34 36.71C164.94 36.4767 164.624 36.16 164.39 35.76C164.157 35.3533 164.04 34.89 164.04 34.37C164.04 33.8433 164.157 33.38 164.39 32.98C164.624 32.58 164.94 32.2667 165.34 32.04C165.74 31.8133 166.197 31.7 166.71 31.7C167.23 31.7 167.69 31.8133 168.09 32.04C168.497 32.2667 168.814 32.58 169.04 32.98C169.274 33.38 169.39 33.8433 169.39 34.37C169.39 34.89 169.274 35.3533 169.04 35.76C168.814 36.16 168.497 36.4767 168.09 36.71C167.684 36.9367 167.224 37.05 166.71 37.05ZM166.71 36.42C167.09 36.42 167.427 36.3367 167.72 36.17C168.014 35.9967 168.244 35.7567 168.41 35.45C168.584 35.1367 168.67 34.7767 168.67 34.37C168.67 33.9567 168.584 33.5967 168.41 33.29C168.244 32.9833 168.014 32.7467 167.72 32.58C167.427 32.4067 167.094 32.32 166.72 32.32C166.347 32.32 166.014 32.4067 165.72 32.58C165.427 32.7467 165.194 32.9833 165.02 33.29C164.847 33.5967 164.76 33.9567 164.76 34.37C164.76 34.7767 164.847 35.1367 165.02 35.45C165.194 35.7567 165.427 35.9967 165.72 36.17C166.014 36.3367 166.344 36.42 166.71 36.42ZM173.24 37V31.75H173.92V33.18L173.85 32.93C173.997 32.53 174.243 32.2267 174.59 32.02C174.937 31.8067 175.367 31.7 175.88 31.7V32.39C175.853 32.39 175.827 32.39 175.8 32.39C175.773 32.3833 175.747 32.38 175.72 32.38C175.167 32.38 174.733 32.55 174.42 32.89C174.107 33.2233 173.95 33.7 173.95 34.32V37H173.24ZM180.136 35.64L180.156 34.73L183.426 31.75H184.296L181.986 33.96L181.586 34.3L180.136 35.64ZM179.576 37V29.58H180.286V37H179.576ZM183.646 37L181.456 34.27L181.916 33.72L184.516 37H183.646ZM189.235 37.05C188.802 37.05 188.392 36.99 188.005 36.87C187.618 36.7433 187.315 36.5867 187.095 36.4L187.415 35.84C187.628 36 187.902 36.14 188.235 36.26C188.568 36.3733 188.918 36.43 189.285 36.43C189.785 36.43 190.145 36.3533 190.365 36.2C190.585 36.04 190.695 35.83 190.695 35.57C190.695 35.3767 190.632 35.2267 190.505 35.12C190.385 35.0067 190.225 34.9233 190.025 34.87C189.825 34.81 189.602 34.76 189.355 34.72C189.108 34.68 188.862 34.6333 188.615 34.58C188.375 34.5267 188.155 34.45 187.955 34.35C187.755 34.2433 187.592 34.1 187.465 33.92C187.345 33.74 187.285 33.5 187.285 33.2C187.285 32.9133 187.365 32.6567 187.525 32.43C187.685 32.2033 187.918 32.0267 188.225 31.9C188.538 31.7667 188.918 31.7 189.365 31.7C189.705 31.7 190.045 31.7467 190.385 31.84C190.725 31.9267 191.005 32.0433 191.225 32.19L190.915 32.76C190.682 32.6 190.432 32.4867 190.165 32.42C189.898 32.3467 189.632 32.31 189.365 32.31C188.892 32.31 188.542 32.3933 188.315 32.56C188.095 32.72 187.985 32.9267 187.985 33.18C187.985 33.38 188.045 33.5367 188.165 33.65C188.292 33.7633 188.455 33.8533 188.655 33.92C188.862 33.98 189.085 34.03 189.325 34.07C189.572 34.11 189.815 34.16 190.055 34.22C190.302 34.2733 190.525 34.35 190.725 34.45C190.932 34.5433 191.095 34.68 191.215 34.86C191.342 35.0333 191.405 35.2633 191.405 35.55C191.405 35.8567 191.318 36.1233 191.145 36.35C190.978 36.57 190.732 36.7433 190.405 36.87C190.085 36.99 189.695 37.05 189.235 37.05Z" fill="#A3A1A1"/>
</svg>
